<?xml version="1.0" standalone="no"?>
	<!DOCTYPE svg PUBLIC "-//W3C//DTD SVG 1.1//EN" "http://www.w3.org/Graphics/SVG/1.1/DTD/svg11.dtd">
		<svg t="1743645875308" class="icon" viewBox="0 0 1024 1024" version="1.1" xmlns="http://www.w3.org/2000/svg" p-id="8649" data-spm-anchor-id="a313x.search_index.0.i5.52343a81VVlrqK" xmlns:xlink="http://www.w3.org/1999/xlink" width="200" height="200">
			<path d="M512 1024c141.386 0 256-114.614 256-256s-114.614-256-256-256-256-114.614-256-256S370.614 0 512 0c282.77 0 512 229.23 512 512S794.77 1024 512 1024z" fill="#2c2c2c" p-id="8650" data-spm-anchor-id="a313x.search_index.0.i1.52343a81VVlrqK" class="selected"></path>
			<path d="M512 0c-141.386 0-256 114.614-256 256s114.614 256 256 256 256 114.614 256 256-114.614 256-256 256C229.23 1024 0 794.77 0 512S229.23 0 512 0z" fill="#e6e6e6" p-id="8651" data-spm-anchor-id="a313x.search_index.0.i2.52343a81VVlrqK" class=""></path>
			<path d="M512 768m-91.428 0a91.428 91.428 0 1 0 182.856 0 91.428 91.428 0 1 0-182.856 0Z" fill="#2c2c2c" p-id="8652" data-spm-anchor-id="a313x.search_index.0.i3.52343a81VVlrqK" class=""></path><path d="M512 256m-91.428 0a91.428 91.428 0 1 0 182.856 0 91.428 91.428 0 1 0-182.856 0Z" fill="#e6e6e6" p-id="8653" data-spm-anchor-id="a313x.search_index.0.i4.52343a81VVlrqK" class=""></path>
		</svg>